<svg xmlns="http://www.w3.org/2000/svg" shape-rendering="geometricPrecision" text-rendering="geometricPrecision" image-rendering="optimizeQuality" class="railroad-diagram" width="239.5" height="71" viewBox="0 0 239.5 71"><defs><marker id="loop-arrow" viewBox="0 0 10 10" markerWidth="5" markerHeight="5" markerUnits="strokeWidth" refX="8" refY="5.5" orient="300"><path class="arrow" d="M0,0 L7,3 L0,6 Z" fill="black"></path></marker><style>svg.railroad-diagram { background-color: white; }
svg.railroad-diagram path:not(.arrow) { stroke-width: 3px; stroke: black; fill: rgba(0, 0, 0, 0); }
svg.railroad-diagram text { font: bold 14px monospace; text-anchor: middle; white-space: pre; }
svg.railroad-diagram text.diagram-text { font-size: 12px; }
svg.railroad-diagram text.diagram-arrow { font-size: 16px; }
svg.railroad-diagram text.label { text-anchor: start; }
svg.railroad-diagram text.comment { font: italic 12px monospace; }
svg.railroad-diagram g.non-terminal text { }
svg.railroad-diagram rect { stroke-width: 3px; stroke: black; fill: rgb(234, 221, 190); }
svg.railroad-diagram rect.group-box { stroke: gray; stroke-dasharray: 10px, 5px; fill: none; }
svg.railroad-diagram path.diagram-text { stroke-width: 3px; stroke: black; fill: white; cursor: help; }
svg.railroad-diagram .non-terminal rect { cursor: pointer; stroke-width: 3px; stroke: black; fill: rgb(204, 230, 255); transition: fill 0.3s; }
svg.railroad-diagram g.comment text.collapseX { display: none; }</style></defs>
<g transform="translate(.5 .5)">
<g>
<path d="M20 21v20m10 -20v20m-10 -10h20"></path>
</g>
<path d="M40 31h10"></path>
<g>
<path d="M50 31h0"></path>
<path d="M189.5 31h0"></path>
<g>
<path d="M50 31h0"></path>
<path d="M189.5 31h0"></path>
<g>
<path d="M50 31h0"></path>
<path d="M115.5 31h0"></path>
<path d="M50 31h10"></path>
<g class="non-terminal ">
<path d="M60 31h0"></path>
<path d="M105.5 31h0"></path>
<rect x="60" y="20" width="45.5" height="22"></rect>
<text x="82.75" y="35">Dir</text>
<title>12-11-10-6-5-4-3</title>
</g>
<path d="M105.5 31h10"></path>
<path d="M60 31a10 10 0 0 0 -10 10v0a10 10 0 0 0 10 10" marker-start="url(#loop-arrow)"></path>
<g>
<path d="M60 51h45.5"></path>
</g>
<path d="M105.5 51a10 10 0 0 0 10 -10v0a10 10 0 0 0 -10 -10"></path>
</g>
<path d="M115.5 31h10"></path>
<path d="M125.5 31h10"></path>
<g class="non-terminal ">
<path d="M135.5 31h0"></path>
<path d="M189.5 31h0"></path>
<rect x="135.5" y="20" width="54" height="22"></rect>
<text x="162.5" y="35">Name</text>
<title>12-11-10-8</title>
</g>
</g>
</g>
<path d="M189.5 31h10"></path>
<path d="M 199.5 31 h 20 m -10 -10 v 20 m 10 -20 v 20"></path>
</g>
</svg>
