<svg xmlns="http://www.w3.org/2000/svg" shape-rendering="geometricPrecision" text-rendering="geometricPrecision" image-rendering="optimizeQuality" class="railroad-diagram" width="483.5" height="142" viewBox="0 0 483.5 142"><defs><marker id="outgoing-loop-arrow" viewBox="0 0 10 10" markerWidth="10" markerHeight="10" markerUnits="strokeWidth" refX="10.7" refY="3.2"><polygon class="outgoing-arrow" points="2.5,5 8,2.5 8,7.5" style="fill:black;stroke:black;stroke-width:2" transform="rotate(130, 5, 5), scale(0.5)"></polygon></marker><marker id="incoming-loop-arrow" viewBox="0 0 10 10" markerWidth="10" markerHeight="10" markerUnits="strokeWidth" refX="0.4" refY="4.75"><polygon class="incoming-arrow" points="2.5,5 8,2.5 8,7.5" style="fill:black;stroke:black;stroke-width:2" transform="rotate(-30, 5, 5), scale(0.5)"></polygon></marker><style>svg.railroad-diagram { background-color: white; }
svg.railroad-diagram path:not(.arrow) { stroke-width: 3px; stroke: black; fill: rgba(0, 0, 0, 0); }
svg.railroad-diagram text { font: bold 14px monospace; text-anchor: middle; white-space: pre; }
svg.railroad-diagram text.diagram-text { font-size: 12px; }
svg.railroad-diagram text.diagram-arrow { font-size: 16px; }
svg.railroad-diagram text.label { text-anchor: start; }
svg.railroad-diagram text.comment { font: italic 12px monospace; }
svg.railroad-diagram g.non-terminal text { }
svg.railroad-diagram rect { stroke-width: 3px; stroke: black; fill: rgb(234, 221, 190); }
svg.railroad-diagram rect.group-box { stroke: gray; stroke-dasharray: 10px, 5px; fill: none; }
svg.railroad-diagram path.diagram-text { stroke-width: 3px; stroke: black; fill: white; cursor: help; }
svg.railroad-diagram .non-terminal rect { cursor: pointer; stroke-width: 3px; stroke: black; fill: rgb(204, 230, 255); transition: fill 0.3s; }
svg.railroad-diagram g.comment text.collapseX { display: none; }</style></defs>
<g transform="translate(.5 .5)">
<g>
<path d="M20 84v20m10 -20v20m-10 -10h20"></path>
</g>
<path d="M40 94h10"></path>
<g>
<path d="M50 94h0"></path>
<path d="M433.5 94h0"></path>
<g>
<path d="M50 94h0"></path>
<path d="M433.5 94h0"></path>
<g>
<path d="M50 94h0"></path>
<path d="M336.5 94h0"></path>
<path d="M50 94h10"></path>
<g>
<path d="M60 94h0"></path>
<path d="M326.5 94h0"></path>
<rect x="60" y="36" width="266.5" height="77" rx="10" ry="10" class="group-box"></rect>
<g>
<path d="M60 94h10"></path>
<path d="M316.5 94h10"></path>
<g>
<path d="M70 94h0"></path>
<path d="M251 94h0"></path>
<g>
<path d="M70 94h0"></path>
<path d="M251 94h0"></path>
<path d="M70 94a10 10 0 0 0 10 -10v-19a10 10 0 0 1 10 -10"></path>
<g class="non-terminal ">
<path d="M90 55h43.5"></path>
<path d="M187.5 55h43.5"></path>
<rect x="133.5" y="44" width="54" height="22"></rect>
<text x="160.5" y="59">Name</text>
<title>12-11-10-6-5-4-3-30-29-26-25-16-15-14</title>
</g>
<path d="M231 55a10 10 0 0 1 10 10v19a10 10 0 0 0 10 10"></path>
<path d="M70 94h20"></path>
<g>
<path d="M90 94h0"></path>
<path d="M231 94h0"></path>
<g class="terminal ">
<path d="M90 94h0"></path>
<path d="M135.5 94h0"></path>
<rect x="90" y="83" width="45.5" height="22" rx="10" ry="10"></rect>
<text x="112.75" y="98">"."</text>
</g>
<path d="M135.5 94h10"></path>
<g>
<path d="M145.5 94h0"></path>
<path d="M231 94h0"></path>
<path d="M145.5 94a10 10 0 0 0 10 -10v0a10 10 0 0 1 10 -10"></path>
<g>
<path d="M165.5 74h45.5"></path>
</g>
<path d="M211 74a10 10 0 0 1 10 10v0a10 10 0 0 0 10 10"></path>
<path d="M145.5 94h20"></path>
<g class="terminal ">
<path d="M165.5 94h0"></path>
<path d="M211 94h0"></path>
<rect x="165.5" y="83" width="45.5" height="22" rx="10" ry="10"></rect>
<text x="188.25" y="98">"."</text>
</g>
<path d="M211 94h20"></path>
</g>
</g>
<path d="M231 94h20"></path>
</g>
</g>
<path d="M251 94h10"></path>
<path d="M261 94h10"></path>
<g class="terminal ">
<path d="M271 94h0"></path>
<path d="M316.5 94h0"></path>
<rect x="271" y="83" width="45.5" height="22" rx="10" ry="10"></rect>
<text x="293.75" y="98">"/"</text>
</g>
</g>
<g class="comment ">
<path d="M60 28h0"></path>
<path d="M91 28h0"></path>
<text x="75.5" y="33" class="comment">Dir</text>
<text x="96" y="33" class="collapseX">&#11198;</text>
<title>12-11-10-6-5-4-3</title>
</g>
</g>
<path d="M326.5 94h10"></path>
<path d="M60 94a10 10 0 0 0 -10 10v7a10 10 0 0 0 10 10" marker-start="url(#outgoing-loop-arrow)"></path>
<g>
<path d="M60 121h266.5"></path>
</g>
<path d="M326.5 121a10 10 0 0 0 10 -10v-7a10 10 0 0 0 -10 -10" marker-start="url(#incoming-loop-arrow)"></path>
</g>
<path d="M336.5 94h10"></path>
<path d="M346.5 94h10"></path>
<g>
<path d="M356.5 94h0"></path>
<path d="M433.5 94h0"></path>
<rect x="356.5" y="75" width="77" height="47" rx="10" ry="10" class="group-box"></rect>
<g>
<path d="M356.5 94h10"></path>
<path d="M423.5 94h10"></path>
<g>
<path d="M366.5 94h0"></path>
<path d="M423.5 94h0"></path>
<path d="M366.5 94h10"></path>
<g class="terminal ">
<path d="M376.5 94h0"></path>
<path d="M413.5 94h0"></path>
<rect x="376.5" y="83" width="37" height="22" rx="10" ry="10"></rect>
<text x="395" y="98">an</text>
</g>
<path d="M413.5 94h10"></path>
<path d="M376.5 94a10 10 0 0 0 -10 10v0a10 10 0 0 0 10 10" marker-start="url(#outgoing-loop-arrow)"></path>
<g>
<path d="M376.5 114h37"></path>
</g>
<path d="M413.5 114a10 10 0 0 0 10 -10v0a10 10 0 0 0 -10 -10" marker-start="url(#incoming-loop-arrow)"></path>
</g>
</g>
<g class="comment ">
<path d="M356.5 67h0"></path>
<path d="M394.5 67h0"></path>
<text x="375.5" y="72" class="comment">Name</text>
<text x="399.5" y="72" class="collapseX">&#11198;</text>
<title>12-11-10-8</title>
</g>
</g>
</g>
</g>
<path d="M433.5 94h10"></path>
<path d="M 443.5 94 h 20 m -10 -10 v 20 m 10 -20 v 20"></path>
</g>
</svg>
